<svg xmlns="http://www.w3.org/2000/svg" viewBox="0 0 342.03 270.16"><defs><style>.cls-1{fill:#fff;}.cls-2{fill:#ff5525;}.cls-3{fill:#ed2024;}.cls-4{fill:#fcee21;}.cls-5{fill:#ff7c25;}</style></defs><g id="Layer_2" data-name="Layer 2"><g id="Logo-2"><path class="cls-1" d="M233.71,75.53,219.83,62.28a4,4,0,0,0-5.6.13L203.88,73.28a10.52,10.52,0,0,0-2.66,9.29l1.85,9.24c-1.74,1.82-7.45,7.77-12.28,12.85.05,1.27.11,2.55.11,3.83,4.59-4.78,11.65-12.2,14.15-14.81l9.29,1.44a14.31,14.31,0,0,0,1.58.11,10.55,10.55,0,0,0,7.6-3.26l10.33-10.84A4,4,0,0,0,233.71,75.53Zm-27.85-.38,10.35-10.86a1.11,1.11,0,0,1,.85-.38,1.45,1.45,0,0,1,.89.35l1.58,1.49L203.88,82.16V82A7.75,7.75,0,0,1,205.86,75.15Zm-1.3,10.25,16.93-17.77,2.44,2.31L205.35,89.42Zm6.82,6.52-4-.63,18.56-19.48,2.44,2.34Zm20.51-12.66L221.54,90.09a7.78,7.78,0,0,1-6.79,2.34l-.11,0L230.29,76l1.55,1.5a1.11,1.11,0,0,1,.38.84A1.26,1.26,0,0,1,231.89,79.26Z"/><path class="cls-2" d="M179.09,161.92c-.31.83-.62,1.67-1,2.47a35.89,35.89,0,0,0-33.32,9.54,57.19,57.19,0,0,0-3.08-39.45,35.89,35.89,0,0,1-61.37-29,35.87,35.87,0,0,0-27,20.1,57.46,57.46,0,0,1,5.37-57.28A93.27,93.27,0,0,1,86,52.48,93.27,93.27,0,0,0,123.26,27a92.78,92.78,0,0,1-18.94,60.07,21.5,21.5,0,0,0,10,33A35.9,35.9,0,0,0,155.93,107a35.95,35.95,0,0,1,.42,41,35.86,35.86,0,0,0,30.74-19.23A151.55,151.55,0,0,1,179.09,161.92Z"/><path class="cls-3" d="M178.13,164.39a57.39,57.39,0,0,1-91.34,20.53,57.45,57.45,0,0,0,54.94-50.44,57.19,57.19,0,0,1,3.08,39.45A35.89,35.89,0,0,1,178.13,164.39Z"/><path class="cls-3" d="M141.73,134.48A93.12,93.12,0,0,1,64,172.11,35.83,35.83,0,0,1,32.3,150.73,57.17,57.17,0,0,1,30.87,108,93.52,93.52,0,0,1,58.69,68.31a57.46,57.46,0,0,0-5.37,57.28,35.87,35.87,0,0,1,27-20.1,35.89,35.89,0,0,0,61.37,29Z"/><path class="cls-4" d="M166.91,82.64a35.87,35.87,0,0,1-43.84,15.11q3-3.36,5.68-7a57.4,57.4,0,0,0,46-42.55A57.28,57.28,0,0,1,166.91,82.64Z"/><path class="cls-5" d="M187.09,128.74A35.86,35.86,0,0,1,156.35,148a35.95,35.95,0,0,0-.42-41,35.9,35.9,0,0,1-41.65,13.13,21.5,21.5,0,0,1-10-33A92.78,92.78,0,0,0,123.26,27,92.94,92.94,0,0,0,140,0a93.15,93.15,0,0,1-11.25,90.77q-2.67,3.62-5.68,7a35.87,35.87,0,0,0,43.84-15.11,57.28,57.28,0,0,0,7.8-34.42A150.4,150.4,0,0,1,187.09,128.74Z"/><path class="cls-1" d="M12.37,98.32a4,4,0,0,1,1.16.68,3.3,3.3,0,0,1,.77.91,3.41,3.41,0,0,1,.42,1.07,5.39,5.39,0,0,1,.1,1.22,6.56,6.56,0,0,1-.18,1.29,10.19,10.19,0,0,1-.46,1.43l-1.35,3.39a.78.78,0,0,1-1.12.45L.58,104.33a.84.84,0,0,1-.53-.47.89.89,0,0,1,0-.62L1.35,100a9.1,9.1,0,0,1,1-1.91A4.21,4.21,0,0,1,3.48,97a2.82,2.82,0,0,1,1.35-.45,3.57,3.57,0,0,1,1.55.28,3.17,3.17,0,0,1,.83.46,2.81,2.81,0,0,1,1,1.44,3,3,0,0,1,.11.92A3.7,3.7,0,0,1,9,98.77a3,3,0,0,1,1-.54,3,3,0,0,1,1.12-.18A3.66,3.66,0,0,1,12.37,98.32Zm-6.7,1.22a1.87,1.87,0,0,0-.74-.16,1.41,1.41,0,0,0-.65.15,1.88,1.88,0,0,0-.55.48,3.49,3.49,0,0,0-.49.92l-.52,1.31L6,103.55l.58-1.45a2.61,2.61,0,0,0,.22-.95,1.49,1.49,0,0,0-.14-.7,1.44,1.44,0,0,0-.41-.54A2,2,0,0,0,5.67,99.54Zm5.72,1.51a2.22,2.22,0,0,0-.85-.17,1.65,1.65,0,0,0-.76.2,2.38,2.38,0,0,0-.66.59,4.59,4.59,0,0,0-.58,1.1l-.61,1.54,3.62,1.44.75-1.87a3.5,3.5,0,0,0,.25-1,2.12,2.12,0,0,0-.08-.77,1.71,1.71,0,0,0-.38-.65A1.92,1.92,0,0,0,11.39,101.05Z"/><path class="cls-1" d="M23.58,83.85a3,3,0,0,1,.61.16.36.36,0,0,1,.25.24.75.75,0,0,1-.09.42,5.86,5.86,0,0,1-.38.73c-.17.31-.32.55-.42.72a2.43,2.43,0,0,1-.29.38.37.37,0,0,1-.22.12.72.72,0,0,1-.25,0l-2.85-.56-2.55,4.49,1.91,2.08a.61.61,0,0,1,.16.22.39.39,0,0,1,0,.27,1.36,1.36,0,0,1-.14.42c-.08.17-.2.39-.35.65a6.18,6.18,0,0,1-.4.65.6.6,0,0,1-.32.26.43.43,0,0,1-.34-.11,3.37,3.37,0,0,1-.44-.43L9,84.86a1.06,1.06,0,0,1-.18-.27.56.56,0,0,1,0-.32A2.45,2.45,0,0,1,9,83.79c.1-.2.23-.45.41-.77l.51-.86a2.57,2.57,0,0,1,.35-.46.6.6,0,0,1,.3-.18,1.15,1.15,0,0,1,.35,0Zm-11.87.52h0L15.83,89l1.92-3.39Z"/><path class="cls-1" d="M33.85,71a.38.38,0,0,1,.13.16.3.3,0,0,1,0,.24,1.53,1.53,0,0,1-.22.41c-.11.18-.28.4-.49.68s-.33.42-.45.55a1.35,1.35,0,0,1-.32.29.37.37,0,0,1-.25.08,1,1,0,0,1-.23,0l-3.19-.89c-.36-.09-.7-.16-1-.21a2.88,2.88,0,0,0-.82,0,1.65,1.65,0,0,0-.69.22,2.25,2.25,0,0,0-.58.54l-.53.7,4.16,3.17a.34.34,0,0,1,.11.17.54.54,0,0,1,0,.27,3.31,3.31,0,0,1-.19.39,6,6,0,0,1-.39.55,5.66,5.66,0,0,1-.43.52,2.42,2.42,0,0,1-.33.29.45.45,0,0,1-.25.09.28.28,0,0,1-.18-.06L17.74,71.5a.8.8,0,0,1-.39-.6.86.86,0,0,1,.2-.59l2.15-2.82c.22-.29.41-.52.56-.7s.29-.33.43-.47a5.47,5.47,0,0,1,1.22-.94,3.37,3.37,0,0,1,1.28-.44,3,3,0,0,1,1.3.1,4,4,0,0,1,1.3.68,4.45,4.45,0,0,1,.89.9,3.35,3.35,0,0,1,.49,1,3.31,3.31,0,0,1,.11,1.14A4.72,4.72,0,0,1,27,70a3.1,3.1,0,0,1,.64-.24,2.73,2.73,0,0,1,.72-.09,4.68,4.68,0,0,1,.82,0c.29,0,.61.12.95.21l2.85.72c.28.08.48.14.6.19A1,1,0,0,1,33.85,71Zm-9.59-2.79a2,2,0,0,0-1.1-.45,1.67,1.67,0,0,0-1.13.4q-.16.14-.36.33a6.14,6.14,0,0,0-.48.58l-.76,1,3.1,2.36.86-1.13a3.61,3.61,0,0,0,.52-.92,2.08,2.08,0,0,0,.13-.83,1.69,1.69,0,0,0-.23-.73A2,2,0,0,0,24.26,68.19Z"/><path class="cls-1" d="M42.32,56.67a3.93,3.93,0,0,1,.79,1.08,3.22,3.22,0,0,1,.35,1.13,3.48,3.48,0,0,1,0,1.16A4.56,4.56,0,0,1,43,61.19a6.5,6.5,0,0,1-.67,1.12,9.8,9.8,0,0,1-1,1.14L38.8,66a.77.77,0,0,1-1.2,0l-8.49-8.44a.78.78,0,0,1,0-1.21L31.5,53.9a9.58,9.58,0,0,1,1.66-1.36,4.32,4.32,0,0,1,1.5-.6,2.86,2.86,0,0,1,1.42.12,3.52,3.52,0,0,1,1.32.87,3.15,3.15,0,0,1,.58.75,3,3,0,0,1,.3.83,2.55,2.55,0,0,1,0,.87,2.92,2.92,0,0,1-.26.89,3.92,3.92,0,0,1,1-.5,3.08,3.08,0,0,1,1.09-.13,3.15,3.15,0,0,1,1.1.29A3.42,3.42,0,0,1,42.32,56.67Zm-6.65-1.52a2,2,0,0,0-.62-.44,1.34,1.34,0,0,0-.65-.11,1.78,1.78,0,0,0-.69.22,3.22,3.22,0,0,0-.81.65l-1,1L34.43,59l1.1-1.1a2.76,2.76,0,0,0,.58-.79,1.62,1.62,0,0,0,.14-.7,1.53,1.53,0,0,0-.16-.66A1.83,1.83,0,0,0,35.67,55.15Zm4.67,3.64a2.2,2.2,0,0,0-.72-.49,1.57,1.57,0,0,0-.77-.11,1.94,1.94,0,0,0-.84.28,4.58,4.58,0,0,0-1,.78l-1.17,1.17,2.77,2.76,1.42-1.43a3.3,3.3,0,0,0,.61-.79,1.87,1.87,0,0,0,.23-.74,1.73,1.73,0,0,0-.1-.74A1.78,1.78,0,0,0,40.34,58.79Z"/><path class="cls-1" d="M55.88,49.51a4.68,4.68,0,0,1,.29.42,1.71,1.71,0,0,1,.15.31.44.44,0,0,1,0,.23.25.25,0,0,1-.1.15l-5.44,4.24a.77.77,0,0,1-1.19-.19l-7.36-9.44a.85.85,0,0,1-.23-.67.93.93,0,0,1,.34-.53l5.41-4.22a.49.49,0,0,1,.17-.06.4.4,0,0,1,.21.07,1.54,1.54,0,0,1,.27.22,4,4,0,0,1,.34.4,2.64,2.64,0,0,1,.29.41,1.76,1.76,0,0,1,.15.32.42.42,0,0,1,0,.22.25.25,0,0,1-.1.15l-3.86,3,2.06,2.65,3.27-2.55a.27.27,0,0,1,.17-.06.39.39,0,0,1,.22.06.92.92,0,0,1,.26.21,4.87,4.87,0,0,1,.34.38,4.68,4.68,0,0,1,.29.42A1.17,1.17,0,0,1,52,46a.42.42,0,0,1,0,.22.33.33,0,0,1-.11.15L48.6,48.88,51,51.94l3.9-3a.36.36,0,0,1,.17-.07.51.51,0,0,1,.22.07,1.54,1.54,0,0,1,.27.22A2.94,2.94,0,0,1,55.88,49.51Z"/><path class="cls-1" d="M68.9,40.08a4.37,4.37,0,0,1,.22.39,1.82,1.82,0,0,1,.13.3,1,1,0,0,1,0,.24,1.57,1.57,0,0,1,0,.27,2.17,2.17,0,0,1-.23.5,5.22,5.22,0,0,1-.51.74,7.58,7.58,0,0,1-.8.82,8.07,8.07,0,0,1-1.09.79,7.06,7.06,0,0,1-2.41.93,4.79,4.79,0,0,1-2.32-.12,5.89,5.89,0,0,1-2.16-1.22,9.77,9.77,0,0,1-1.91-2.36,9.32,9.32,0,0,1-1.2-2.91,6.52,6.52,0,0,1-.06-2.63,5.49,5.49,0,0,1,1-2.23,6.8,6.8,0,0,1,2-1.74,6.16,6.16,0,0,1,1-.49,5.85,5.85,0,0,1,1-.29,4,4,0,0,1,.88-.11A2.59,2.59,0,0,1,63,31l.29.1a1.4,1.4,0,0,1,.2.17l.22.28q.12.16.27.42c.11.18.19.34.26.47a1.62,1.62,0,0,1,.12.35.49.49,0,0,1,0,.24.24.24,0,0,1-.12.14.79.79,0,0,1-.44.05,4.24,4.24,0,0,0-.75,0,4.84,4.84,0,0,0-1,.12,3.9,3.9,0,0,0-1.19.5,3,3,0,0,0-1.08,1,3.08,3.08,0,0,0-.44,1.37,4.31,4.31,0,0,0,.18,1.64,8.6,8.6,0,0,0,2.12,3.5,4,4,0,0,0,1.36.88,2.88,2.88,0,0,0,1.39.16,3.68,3.68,0,0,0,1.41-.52,4.07,4.07,0,0,0,1-.81,4.34,4.34,0,0,0,.59-.81,6.33,6.33,0,0,0,.35-.65.82.82,0,0,1,.25-.35.41.41,0,0,1,.17,0,.26.26,0,0,1,.17.09,1.47,1.47,0,0,1,.24.28A5.83,5.83,0,0,1,68.9,40.08Z"/><path class="cls-1" d="M83.73,30a6.65,6.65,0,0,1,.54,2.23,4.37,4.37,0,0,1-.35,2,4.7,4.7,0,0,1-1.22,1.66,7.56,7.56,0,0,1-2.11,1.29,7.28,7.28,0,0,1-2.26.61,4.36,4.36,0,0,1-2-.22,4.19,4.19,0,0,1-1.64-1.08,6.48,6.48,0,0,1-1.25-2l-3.27-7.69a.34.34,0,0,1,0-.2.42.42,0,0,1,.16-.21,2,2,0,0,1,.36-.25,5.09,5.09,0,0,1,.61-.29,5.43,5.43,0,0,1,.63-.24,2.29,2.29,0,0,1,.42-.09.53.53,0,0,1,.27,0,.34.34,0,0,1,.14.15l3.17,7.46a4.55,4.55,0,0,0,.75,1.22,2.4,2.4,0,0,0,.92.69,2.5,2.5,0,0,0,1.06.19A3.33,3.33,0,0,0,79.8,35a3.38,3.38,0,0,0,1-.65,2.37,2.37,0,0,0,.58-.89,2.58,2.58,0,0,0,.13-1.09,3.76,3.76,0,0,0-.32-1.27L78,23.46a.35.35,0,0,1,0-.2.54.54,0,0,1,.15-.22,3,3,0,0,1,.37-.24,6.65,6.65,0,0,1,.6-.3c.25-.1.46-.18.63-.23a2.07,2.07,0,0,1,.41-.08.4.4,0,0,1,.26,0,.26.26,0,0,1,.14.15Z"/><path class="cls-1" d="M100,29.23a3.6,3.6,0,0,1,.12.51,2,2,0,0,1,0,.34.4.4,0,0,1-.08.21.27.27,0,0,1-.15.11l-6.65,1.82a.78.78,0,0,1-1-.63L89.05,20.05a.88.88,0,0,1,0-.71.86.86,0,0,1,.52-.36l6.61-1.81a.25.25,0,0,1,.17,0,.48.48,0,0,1,.18.15,1.46,1.46,0,0,1,.16.31,3.38,3.38,0,0,1,.17.49,3.13,3.13,0,0,1,.1.5A1,1,0,0,1,97,19a.51.51,0,0,1-.08.21.22.22,0,0,1-.15.11l-4.72,1.29L93,23.81l4-1.1a.28.28,0,0,1,.18,0,.44.44,0,0,1,.18.14,1.25,1.25,0,0,1,.16.29,3,3,0,0,1,.16.48c0,.2.09.37.11.5a1.26,1.26,0,0,1,0,.33.4.4,0,0,1-.08.21.26.26,0,0,1-.16.09l-4,1.11,1,3.73,4.77-1.31a.23.23,0,0,1,.18,0,.44.44,0,0,1,.18.14,2,2,0,0,1,.16.3A3.13,3.13,0,0,1,100,29.23Z"/><path class="cls-1" d="M136.26,145.84a92.92,92.92,0,0,1-68.43,29.91h-2a94.06,94.06,0,0,0-20,1.71,36.43,36.43,0,0,0-12.47,5,21.58,21.58,0,0,0-9.48,22.25,35.76,35.76,0,0,0,16.63,23.77,57.17,57.17,0,0,0,27,8.23,3.58,3.58,0,0,1,1.85,6.55,57,57,0,0,1-32.43,9.94A35.82,35.82,0,0,1,8.61,239.35a36,36,0,0,0,22,19.61,57.24,57.24,0,0,0,26.79,1.88,35.82,35.82,0,0,0,20-10.63,14.35,14.35,0,0,0-9-24.17A56.58,56.58,0,0,1,43,217.32a21.15,21.15,0,0,1-8.75-11.09,14.34,14.34,0,0,1,7.2-17.58A36,36,0,0,1,58.35,185a93,93,0,0,0,76.88-36.46Z"/><path class="cls-1" d="M249.26,183.66c2.46-.43,4.82-1.89,4.47-3.84s-3.07-2.6-5.53-2.17-4.5,1.67-4.12,3.87S246.89,184.08,249.26,183.66Z"/><path class="cls-1" d="M319.19,171.33c2.45-.43,4.81-1.89,4.47-3.84s-3.08-2.6-5.53-2.17-4.51,1.67-4.12,3.87S316.82,171.75,319.19,171.33Z"/><path class="cls-1" d="M340,184.79a1.11,1.11,0,0,0-.89.86c-.3,12.18-3.25,19.68-6.47,20.25-2.79.49-4.63-5.47-5.79-12.07a158.91,158.91,0,0,1-1.9-16.25c-.4-1.24-2.5-1.75-4.7-1.36s-4.57,1.77-5,4c0,.33,1.68,12.49,1.33,14.19-1.18,5.72-3.88,16.78-6.19,17.18-2.88.51-4.26-3.32-5.18-8.57-.76-4.32-1.34-10.58-1.7-12.61-.94-5.34-6-7.76-11.16-6.85C284.15,185,282,200,281.17,210.16c-.5-2.79-1.16-6.08-1.77-9.55a126.68,126.68,0,0,1-1.86-14c-.43-1-2.15-1.28-3.92-1-2.37.42-4.9,1.91-5.25,4.42-.21,1.59.17,6,1.08,11.46-.49,11.29-3.31,18.25-6.39,18.8-2.79.49-4.63-5.47-5.79-12.07-.93-5.25-2.15-15.16-2.28-18.36-.39-1.24-2.49-1.75-4.69-1.36s-4.58,1.77-5,4c0,.32,1.91,14.51,1.29,16.14-2.16,5.69-7.47,17.06-12.9,18-6.94,1.22-11.13-4.75-12.46-12.29-1.51-8.54.16-17.39,5.07-18.26,4-.7,5.61,4.6,6.55,7a4.37,4.37,0,0,0,1.57,0,2.77,2.77,0,0,0,2.25-3.54c-.74-4.23-5.24-7.45-11.42-6.37-10,1.77-15.79,12.39-13.81,23.65a23.91,23.91,0,0,0,.64,2.62c-2.11,7.3-6.35,12.17-11.83,13.14-6.94,1.22-11.14-4.76-12.46-12.29-1.51-8.55.16-17.4,5.07-18.26,4-.7,5.61,4.59,6.55,7a4.6,4.6,0,0,0,1.57,0,2.79,2.79,0,0,0,2.25-3.55c-.74-4.23-5.24-7.45-11.42-6.36-10,1.76-15.79,12.39-13.81,23.64.11.59.24,1.13.38,1.67-1,7.54-3,12.33-5.52,12.77-3.22.57-5.27-6.14-6.54-13.34-1.23-6.94-1.77-15-2-17.63-.82-1.16-3.14-1.45-5.34-1.06-2,.36-3.86,1.38-4.25,3.1a29.34,29.34,0,0,0,0,4.62,11.58,11.58,0,0,0-10.3-3c-11.07,2-13.92,12.75-12.8,20.35-1.78,4.72-5.56,7-9.61,8a24,24,0,0,0,1.35-12.63c-1.42-8-8.25-12.16-13.84-11.18-6.6,1.17-10.35,8.63-11.69,19.34a105.73,105.73,0,0,1-1.45-16.67c-.14-.76-2.2-1.1-4.32-.72s-4.44,1.56-4.74,3.8c-.57,5.68.32,14.69,1.92,23.75,1.79,10.15,4.54,20.32,7.24,24.73.84,1.33,2.56,1.64,4.33,1.33,2.54-.45,5.21-2.14,5.12-3.17a111.41,111.41,0,0,1-5.09-17,10.63,10.63,0,0,0,7.91,1.84c4.24-.75,8.71-4.59,11.61-9.91l.85-.14c4.35-.77,8.89-2.63,11.7-6.79,3,7.07,10,10.63,16.36,9.52,6.95-1.23,8.85-7.76,8.94-14.15,2.58,6.71,6.86,12.15,13.37,11,4.25-.75,7.36-4.18,9-11.42,4.2,6.62,11.92,8.17,18.09,7.08,7.1-1.25,12.37-6,15.26-13.13,4.18,6.75,12,8.33,18.18,7.23,8-1.41,13.74-7.27,16.29-16a23,23,0,0,0,1.73,4.41,10.85,10.85,0,0,0,11.52,4.95c4.57-.8,8.13-4.23,9.77-12.63a40.3,40.3,0,0,0,1.83,6.13,6.37,6.37,0,0,0,6.89,3.42,4.81,4.81,0,0,0,3.37-2.17c.3-10.18,3.05-30.21,7.54-31,1.61-.28,2.3,1.69,2.78,4.4.64,3.63.86,9.36,1.61,13.59,1.45,8.21,6.88,10.8,13.57,9.62,4.89-.86,7.9-5.48,9.4-13.74a18.73,18.73,0,0,0,1.28,3,10.84,10.84,0,0,0,11.52,4.95c6.09-1.07,10.4-6.81,10.72-22.83C341.82,185.34,340.65,184.67,340,184.79ZM106.88,248.92c-1.95.35-5.08-1.11-5.49-3.39-.28-1.61,1-2.36,3-2.71a56.32,56.32,0,0,1,7.35-.43C110.64,246,109,248.55,106.88,248.92Zm5.64-9.54a90.73,90.73,0,0,0-10.28.59,10.38,10.38,0,0,0-2.41.68c1-11.08,4.41-21.54,8.64-22.29,2.2-.39,3.69,2.14,4.38,6A43.9,43.9,0,0,1,112.52,239.38Zm37.84,1.18c-3.9.69-7.53-5-8.72-11.82s-.07-14.73,5.18-15.66c3.22-.57,6.15,1.71,8.46,4.44C156,223.16,156.79,239.43,150.36,240.56Z"/></g></g></svg>